<svg viewBox="0,0 128,127" xmlns="http://www.w3.org/2000/svg">
  <g transform="">
    <g transform="translate(0.0 0.0) scale(1.0 0.503937007874)">
      <g transform="">
        <g transform=" scale(1.00549882168 1.05263157895)">
          <path d="
            M 106.1,11.1
            l 9.2,-11.1
            c 4.6,4.1,8.6,8.1,12.0,12.2
            l -1.8,3.0
            H 1.3
            l -1.3,-4.0
            H 106.1
            Z"
          />
        </g>
        <g transform="translate(60.0 18.0) scale(0.481927710843 0.876205787781)">
          <path d="
            M 0.0,124.4
            V 0.0
            c 11.1,0.4,16.6,1.9,16.6,4.2
            c 0.0,1.4,-2.4,3.0,-7.2,4.6
            v 115.5
            H 0.0
            Z"
          />
        </g>
        <g transform="translate(64.0 30.0) scale(0.563909774436 0.493421052632)">
          <path d="
            M 48.2,60.8
            c -2.8,0.0,-4.6,-1.3,-5.3,-4.0
            c -3.4,-9.1,-8.2,-17.6,-14.4,-25.5
            c -9.3,-11.7,-18.8,-21.4,-28.5,-28.9
            l 2.9,-2.4
            c 12.2,8.2,22.7,16.9,31.6,26.1
            c 5.8,5.9,10.4,11.5,13.8,16.9
            c 3.3,5.2,4.9,9.4,4.9,12.6
            c 0.0,1.7,-0.6,3.0,-1.7,4.0
            C 50.5,60.4,49.4,60.8,48.2,60.8
            Z"
          />
        </g>
      </g>
    </g>
    <g transform="translate(0.0 63.0) scale(1.00787401575 0.503937007874)">
      <g transform="">
        <g transform=" scale(1.10051993068 1.11501316945)">
          <path d="
            M 72.8,7.8
            l 6.9,-7.8
            c 7.5,5.9,11.2,9.8,11.2,11.7
            c 0.0,0.8,-0.7,1.5,-2.2,2.0
            L 83.4,15.1
            c -27.7,24.3,-50.0,46.4,-66.8,66.1
            c -4.4,5.3,-6.6,9.9,-6.6,13.8
            c 0.0,4.9,2.5,7.8,7.6,8.5
            c 8.0,1.2,20.2,1.8,36.5,1.8
            c 24.2,0.0,38.2,-0.9,41.9,-2.6
            c 3.5,-1.6,6.2,-11.0,8.1,-28.1
            l 4.0,1.5
            v 4.4
            c 0.0,9.3,0.5,15.3,1.6,17.9
            c 0.9,2.4,2.8,3.7,5.7,3.7
            c -0.4,5.2,-3.1,8.3,-8.1,9.4
            c -7.4,1.6,-24.8,2.4,-52.2,2.4
            c -25.6,0.0,-40.9,-1.1,-45.9,-3.3
            c -6.1,-2.7,-9.2,-7.2,-9.2,-13.5
            c 0.0,-7.0,4.2,-15.4,12.7,-25.0
            c 14.0,-16.0,34.1,-36.2,60.2,-60.6
            H 5.4
            l -1.5,-3.7
            H 72.8
            Z"
          />
        </g>
      </g>
    </g>
  </g>
</svg>